<svg width="149" height="24" viewBox="0 0 149 24" fill="none" xmlns="http://www.w3.org/2000/svg">
<path fill-rule="evenodd" clip-rule="evenodd" d="M10.188 1.27783C11.8503 1.27783 13.4195 1.67725 14.8057 2.38565C13.7027 3.68363 12.831 5.18545 12.2544 6.82695C11.6229 6.5454 10.9237 6.38894 10.188 6.38894C7.37469 6.38894 5.09402 8.67727 5.09402 11.5001C5.09402 14.3228 7.37469 16.6112 10.188 16.6112C13.0014 16.6112 15.2821 14.3228 15.2821 11.5001C15.2821 8.90758 16.2439 6.54051 17.8291 4.7385C19.6959 2.61632 22.4272 1.27783 25.4701 1.27783C31.0968 1.27783 35.6581 5.85448 35.6581 11.5001C35.6581 17.1456 31.0968 21.7223 25.4701 21.7223C22.4272 21.7223 19.6959 20.3838 17.8291 18.2616C15.9622 20.3838 13.2309 21.7223 10.188 21.7223C4.56134 21.7223 0 17.1456 0 11.5001C0 5.85448 4.56134 1.27783 10.188 1.27783ZM20.3761 11.5001C20.3761 14.3228 22.6567 16.6112 25.4701 16.6112C28.2834 16.6112 30.5641 14.3228 30.5641 11.5001C30.5641 8.67727 28.2834 6.38894 25.4701 6.38894C22.6567 6.38894 20.3761 8.67727 20.3761 11.5001Z" fill="#0F172A"/>
<path d="M53.2841 11.2017L50.5142 11.3722C50.4669 11.1354 50.3651 10.9223 50.2088 10.733C50.0526 10.5388 49.8466 10.3849 49.5909 10.2713C49.34 10.1529 49.0393 10.0938 48.6889 10.0938C48.2202 10.0938 47.8248 10.1932 47.5028 10.392C47.1809 10.5862 47.0199 10.8466 47.0199 11.1733C47.0199 11.4337 47.1241 11.6539 47.3324 11.8338C47.5407 12.0137 47.8982 12.1581 48.4048 12.267L50.3793 12.6648C51.4399 12.8826 52.2306 13.233 52.7514 13.7159C53.2723 14.1989 53.5327 14.8333 53.5327 15.6193C53.5327 16.3343 53.322 16.9616 52.9006 17.5014C52.4839 18.0412 51.911 18.4626 51.1818 18.7656C50.4574 19.0639 49.6217 19.2131 48.6747 19.2131C47.2306 19.2131 46.08 18.9124 45.223 18.3111C44.3707 17.705 43.8712 16.8812 43.7244 15.8395L46.7003 15.6832C46.7902 16.1236 47.008 16.4598 47.3537 16.6918C47.6993 16.919 48.142 17.0327 48.6818 17.0327C49.2121 17.0327 49.6383 16.9309 49.9602 16.7273C50.2869 16.5189 50.4527 16.2514 50.4574 15.9247C50.4527 15.6501 50.3366 15.4252 50.1094 15.25C49.8821 15.0701 49.5317 14.9328 49.0582 14.8381L47.169 14.4616C46.1037 14.2486 45.3106 13.8793 44.7898 13.3537C44.2737 12.8281 44.0156 12.1581 44.0156 11.3438C44.0156 10.643 44.205 10.0393 44.5838 9.53267C44.9673 9.02604 45.5047 8.63542 46.196 8.3608C46.892 8.08617 47.7064 7.94886 48.6392 7.94886C50.017 7.94886 51.1013 8.24006 51.892 8.82244C52.6875 9.40483 53.1515 10.1979 53.2841 11.2017ZM57.3058 23.0909C56.9222 23.0909 56.5624 23.0601 56.2262 22.9986C55.8948 22.9418 55.6201 22.8684 55.4023 22.7784L56.0842 20.5199C56.4393 20.6288 56.7589 20.688 57.043 20.6974C57.3318 20.7069 57.5804 20.6406 57.7887 20.4986C58.0018 20.3565 58.1746 20.1151 58.3072 19.7741L58.4847 19.3125L54.5714 8.09091H57.7532L60.0117 16.1023H60.1254L62.4052 8.09091H65.6083L61.3683 20.179C61.1647 20.7661 60.8877 21.2775 60.5373 21.7131C60.1916 22.1534 59.7537 22.492 59.2234 22.7287C58.6931 22.9702 58.0539 23.0909 57.3058 23.0909ZM70.1822 12.6932V19H67.1566V8.09091H70.0401V10.0156H70.168C70.4094 9.38116 70.8143 8.87926 71.3825 8.50994C71.9506 8.13589 72.6396 7.94886 73.4492 7.94886C74.2068 7.94886 74.8673 8.11458 75.4308 8.44602C75.9942 8.77746 76.4322 9.25095 76.7447 9.86648C77.0572 10.4773 77.2134 11.2064 77.2134 12.054V19H74.1879V12.5938C74.1926 11.9261 74.0221 11.4053 73.6765 11.0312C73.3308 10.6525 72.855 10.4631 72.2489 10.4631C71.8417 10.4631 71.4819 10.5507 71.1694 10.7259C70.8616 10.901 70.6201 11.1567 70.445 11.4929C70.2745 11.8243 70.1869 12.2244 70.1822 12.6932ZM84.527 19.2131C83.4096 19.2131 82.4484 18.9763 81.6435 18.5028C80.8433 18.0246 80.2277 17.3617 79.7969 16.5142C79.3707 15.6667 79.1577 14.6913 79.1577 13.5881C79.1577 12.4706 79.3731 11.4905 79.804 10.6477C80.2396 9.80019 80.8575 9.13968 81.6577 8.66619C82.4579 8.18797 83.4096 7.94886 84.5128 7.94886C85.4645 7.94886 86.2978 8.12169 87.0128 8.46733C87.7277 8.81297 88.2936 9.2983 88.7102 9.9233C89.1269 10.5483 89.3565 11.2822 89.3991 12.125H86.544C86.4635 11.5805 86.2505 11.1425 85.9048 10.8111C85.5639 10.4749 85.1165 10.3068 84.5625 10.3068C84.0938 10.3068 83.6842 10.4347 83.3338 10.6903C82.9882 10.9413 82.7183 11.3082 82.5241 11.7912C82.33 12.2741 82.233 12.8589 82.233 13.5455C82.233 14.2415 82.3277 14.8333 82.517 15.321C82.7112 15.8087 82.9834 16.1804 83.3338 16.4361C83.6842 16.6918 84.0938 16.8196 84.5625 16.8196C84.9081 16.8196 85.2183 16.7486 85.4929 16.6065C85.7723 16.4645 86.0019 16.2585 86.1818 15.9886C86.3665 15.714 86.4872 15.3849 86.544 15.0014H89.3991C89.3518 15.8348 89.1245 16.5687 88.7173 17.2031C88.3149 17.8329 87.7585 18.3253 87.0483 18.6804C86.3381 19.0355 85.4976 19.2131 84.527 19.2131ZM94.3619 12.6932V19H91.3363V4.45455H94.2766V10.0156H94.4045C94.6507 9.37169 95.0484 8.86742 95.5977 8.50284C96.1469 8.13352 96.8358 7.94886 97.6644 7.94886C98.422 7.94886 99.0825 8.11458 99.646 8.44602C100.214 8.77273 100.654 9.24384 100.967 9.85938C101.284 10.4702 101.44 11.2017 101.436 12.054V19H98.4102V12.5938C98.4149 11.9214 98.2444 11.3982 97.8988 11.0241C97.5579 10.6501 97.0797 10.4631 96.4641 10.4631C96.0522 10.4631 95.6876 10.5507 95.3704 10.7259C95.0579 10.901 94.8117 11.1567 94.6317 11.4929C94.4566 11.8243 94.3666 12.2244 94.3619 12.6932ZM110.812 14.3551V8.09091H113.838V19H110.933V17.0185H110.82C110.573 17.6577 110.164 18.1714 109.591 18.5597C109.023 18.9479 108.329 19.142 107.51 19.142C106.781 19.142 106.139 18.9763 105.585 18.6449C105.031 18.3134 104.598 17.8423 104.286 17.2315C103.978 16.6207 103.821 15.8892 103.817 15.0369V8.09091H106.842V14.4972C106.847 15.1411 107.02 15.6501 107.361 16.0241C107.702 16.3982 108.159 16.5852 108.732 16.5852C109.096 16.5852 109.437 16.5024 109.754 16.3366C110.071 16.1662 110.327 15.9152 110.521 15.5838C110.72 15.2524 110.817 14.8428 110.812 14.3551ZM116.315 19V4.45455H119.341V9.9233H119.433C119.565 9.62973 119.757 9.33144 120.008 9.02841C120.264 8.72064 120.595 8.46496 121.002 8.26136C121.414 8.05303 121.926 7.94886 122.537 7.94886C123.332 7.94886 124.066 8.1572 124.738 8.57386C125.411 8.9858 125.948 9.60843 126.35 10.4418C126.753 11.2704 126.954 12.3097 126.954 13.5597C126.954 14.7765 126.758 15.804 126.365 16.642C125.976 17.4754 125.446 18.1075 124.774 18.5384C124.106 18.9645 123.358 19.1776 122.529 19.1776C121.942 19.1776 121.443 19.0805 121.031 18.8864C120.624 18.6922 120.29 18.4484 120.029 18.1548C119.769 17.8565 119.57 17.5559 119.433 17.2528H119.298V19H116.315ZM119.277 13.5455C119.277 14.1941 119.367 14.7599 119.547 15.2429C119.726 15.7259 119.987 16.1023 120.328 16.3722C120.669 16.6373 121.083 16.7699 121.571 16.7699C122.063 16.7699 122.48 16.6349 122.821 16.3651C123.162 16.0904 123.42 15.7116 123.595 15.2287C123.775 14.741 123.865 14.1799 123.865 13.5455C123.865 12.9157 123.777 12.3617 123.602 11.8835C123.427 11.4053 123.169 11.0312 122.828 10.7614C122.487 10.4915 122.068 10.3565 121.571 10.3565C121.078 10.3565 120.662 10.4867 120.321 10.7472C119.984 11.0076 119.726 11.3769 119.547 11.8551C119.367 12.3333 119.277 12.8968 119.277 13.5455Z" fill="#0F172A"/>
</svg>
